<svg xmlns="http://www.w3.org/2000/svg" class="injected-svg inject-me" viewBox="0 0 8 8" width="8" height="8" data-src="/fixtures/thumb-up.svg" xmlns:NS1="" NS1:xmlns:xlink="http://www.w3.org/1999/xlink">
  <path d="M 4.47 0 c -0.19 0.02 -0.37 0.15 -0.47 0.34 c -0.13 0.26 -1.09 2.19 -1.28 2.38 c -0.19 0.19 -0.44 0.28 -0.72 0.28 v 4 h 3.5 c 0.21 0 0.39 -0.13 0.47 -0.31 c 0 0 1.03 -2.91 1.03 -3.19 c 0 -0.28 -0.22 -0.5 -0.5 -0.5 h -1.5 c -0.28 0 -0.5 -0.25 -0.5 -0.5 s 0.39 -1.58 0.47 -1.84 c 0.08 -0.26 -0.05 -0.54 -0.31 -0.63 c -0.07 -0.02 -0.12 -0.04 -0.19 -0.03 Z m -4.47 3 v 4 h 1 v -4 h -1 Z" />
</svg>