<svg
  height="24"
  viewBox="0 0 24 24"
  width="24"
  xmlns="http://www.w3.org/2000/svg"
  xmlns:xlink="http://www.w3.org/1999/xlink"
>
  <defs>
    <path
      d="M 16 0 H 2 C 0.9 0 0 0.9 0 2 v 14 c 0 1.1 0.9 2 2 2 h 14 c 1.1 0 2 -0.9 2 -2 V 2 c 0 -1.1 -0.9 -2 -2 -2 Z M 6 14 H 4 V 7 h 2 v 7 Z m 4 0 H 8 V 4 h 2 v 10 Z m 4 0 h -2 v -4 h 2 v 4 Z"
      id="a"
    ></path>
  </defs>
  <g fill="none" fill-rule="evenodd">
    <path d="M 0 0 h 24 v 24 H 0 Z"></path>
    <g transform="translate(3 3)">
      <mask fill="#fff" id="b">
        <use xlink:href="#a"></use>
      </mask>
      <use fill="#000" fill-opacity="0.7" xlink:href="#a"></use>
      <g mask="url(#b)">
        <path
          d="M -103 -91019 H -3 v 100 h -100 Z"
          fill="#004876"
          fill-rule="nonzero"
        ></path>
      </g>
    </g>
  </g>
</svg>
